<svg width="103" height="32" viewBox="0 0 103 32" fill="none" xmlns="http://www.w3.org/2000/svg">
<path fill-rule="evenodd" clip-rule="evenodd" d="M54.0868 14.4839H50.7213L44.182 29.9679H47.5295L48.8749 26.7819H55.9352L57.2806 29.9679H60.6281L54.0868 14.4839ZM52.404 18.4259L50.1824 23.6859H54.6257L52.404 18.4259ZM81.1642 17.0659C77.4833 17.0659 74.4872 20.0759 74.4872 23.7759C74.4872 27.4759 77.4833 30.4859 81.1642 30.4859C84.845 30.4859 87.8412 27.4759 87.8412 23.7759C87.8412 20.0759 84.845 17.0659 81.1642 17.0659ZM85.0167 23.7739C85.0167 25.9119 83.2921 27.6439 81.1642 27.6439C79.0363 27.6439 77.3117 25.9119 77.3117 23.7739C77.3117 21.6359 79.0363 19.9039 81.1642 19.9039C83.2921 19.9039 85.0167 21.6359 85.0167 23.7739ZM102.728 22.8319H102.734V29.9699H99.6523V23.0039C99.6523 21.2999 98.2989 19.9079 96.5703 19.9079C94.8416 19.9079 93.4883 21.3679 93.4883 22.9079V29.9699H90.4063V17.5839H93.4883V18.6159C94.3905 17.7159 95.6441 17.2079 97.0853 17.2079C100.369 17.2079 102.613 19.4579 102.726 22.8339L102.728 22.8319ZM73.7825 29.9679L69.4949 23.8139L73.8384 17.5799H70.0757L67.6145 21.1139L65.1533 17.5799H61.3906L65.7342 23.8139L61.4465 29.9679H65.2072L67.6145 26.5139L70.0218 29.9679H73.7845H73.7825Z" fill="white"/>
<path d="M16.2141 19.6199C14.719 19.6179 13.2259 19.7359 11.7408 19.9799L6.41711 29.1559C9.50711 27.5379 12.8626 26.8419 16.2321 26.8459C19.6135 26.8439 22.969 27.5319 26.067 29.1619L20.7473 19.9959C19.2542 19.7499 17.7391 19.6219 16.2161 19.6219L16.2141 19.6199Z" fill="url(#paint0_linear_11266_2696)"/>
<path d="M20.7435 19.9922C24.0611 20.5402 27.2689 21.6762 30.2231 23.3162C33.0676 24.8962 32.5506 28.0882 30.5505 29.3882L30.2111 29.5822C29.1891 30.0962 27.8557 30.1422 26.4145 29.3482C26.2967 29.2842 26.181 29.2222 26.0632 29.1602L20.7435 19.9922Z" fill="url(#paint1_linear_11266_2696)"/>
<path d="M11.741 19.978C8.50325 20.506 5.30745 21.616 2.2474 23.316C-0.575123 24.884 -0.0860727 28.044 1.88011 29.36L2.30528 29.604C3.32131 30.096 4.63476 30.13 6.056 29.348C6.17577 29.282 6.29753 29.218 6.4173 29.154L11.741 19.978Z" fill="url(#paint2_linear_11266_2696)"/>
<path d="M19.3466 6.87181C19.9894 5.76381 19.9674 4.45581 19.4045 3.40381L31.7066 24.6018C31.8483 24.8478 31.9581 25.1018 32.038 25.3638C31.7765 24.5858 31.1976 23.8578 30.2235 23.3178C27.2692 21.6758 24.0595 20.5398 20.7439 19.9938L16.2386 12.2298L19.3466 6.87381V6.87181Z" fill="url(#paint3_linear_11266_2696)"/>
<path d="M16.2382 12.2278L13.1302 6.87181C12.4875 5.76381 12.5094 4.45581 13.0723 3.40381L0.770223 24.6018C0.654448 24.7998 0.56063 25.0038 0.48877 25.2118C0.772219 24.4918 1.33712 23.8218 2.24735 23.3158C5.30741 21.6158 8.50321 20.5058 11.7409 19.9778L16.2382 12.2258V12.2278Z" fill="url(#paint4_linear_11266_2696)"/>
<path d="M19.406 3.40411C19.9689 4.45611 19.9909 5.76411 19.3481 6.87211L16.2402 12.2281L13.1302 6.87211C12.4875 5.76411 12.5094 4.45611 13.0723 3.40411L13.1322 3.30211C13.7949 2.15811 14.9986 1.51811 16.2362 1.51611C17.4758 1.51611 18.6814 2.15611 19.3461 3.30211L19.406 3.40411Z" fill="url(#paint5_linear_11266_2696)"/>
<mask id="mask0_11266_2696" style="mask-type:luminance" maskUnits="userSpaceOnUse" x="44" y="1" width="54" height="9">
<path d="M97.2045 1.53589H44.1794V9.53589H97.2045V1.53589Z" fill="white"/>
</mask>
<g mask="url(#mask0_11266_2696)">
<path d="M49.9838 9.41637L49.4069 7.74037H46.2471C46.1572 8.00437 46.0674 8.28237 45.9696 8.58837L45.7061 9.42237H44.1791L47.0116 1.63037H48.6564L51.413 9.42237H49.9758L49.9838 9.41637ZM47.824 3.32237C47.6304 3.85037 47.4487 4.36637 47.2751 4.86637C47.1014 5.36637 46.9078 5.89637 46.6982 6.45237H48.9538L47.822 3.32237H47.824Z" fill="#A0A6AE"/>
<path d="M56.0102 1.6604H53.1218V9.4444H54.4552V6.7944H56.0042C57.5872 6.7944 58.3517 6.1344 58.3517 4.7704V3.6704C58.3597 2.3144 57.5872 1.6604 56.0042 1.6604H56.0102ZM54.4632 2.8844H55.9843C56.8865 2.8844 57.0322 3.1204 57.0322 3.6784V4.7704C57.0322 5.3204 56.8805 5.5644 55.9843 5.5644H54.4632V2.8864V2.8844Z" fill="#A0A6AE"/>
<path d="M62.7955 1.6604H59.9071V9.4444H61.2405V6.7944H62.7895C64.3724 6.7944 65.137 6.1344 65.137 4.7704V3.6704C65.137 2.3144 64.3724 1.6604 62.7895 1.6604H62.7975H62.7955ZM61.2385 2.8844H62.7596C63.6618 2.8844 63.8075 3.1204 63.8075 3.6784V4.7704C63.8075 5.3204 63.6558 5.5644 62.7596 5.5644H61.2385V2.8864V2.8844Z" fill="#A0A6AE"/>
<path d="M68.015 8.66621H71.632V9.44621H67.2225V1.66821H68.015V8.66621Z" fill="#A0A6AE"/>
<path d="M79.7701 1.66821H80.5546L83.0817 8.66621L85.6228 1.66821H86.4212L83.6027 9.44621H82.5607L79.7701 1.66821Z" fill="#A0A6AE"/>
<path d="M88.8508 9.44421H88.0603V1.66821H88.8508V9.44621V9.44421Z" fill="#A0A6AE"/>
<path d="M92.6293 2.60021V9.43821H91.8927V1.66821H93.0584L96.4678 8.32621V1.66821H97.2104V9.44621H96.2662L92.6353 2.60021H92.6293Z" fill="#A0A6AE"/>
<path d="M78.5687 7.17642C78.5687 8.47042 77.7563 9.53442 75.7362 9.53442C73.7161 9.53442 72.9037 8.47042 72.9037 7.17642V3.89242C72.9037 2.59842 73.7161 1.53442 75.7362 1.53442C77.7563 1.53442 78.5687 2.59842 78.5687 3.89242V7.17642ZM73.6403 7.19042C73.6403 8.31042 74.3269 8.93642 75.7641 8.93642C77.2013 8.93642 77.888 8.31042 77.888 7.19042V3.87842C77.888 2.75842 77.2013 2.13242 75.7641 2.13242C74.3269 2.13242 73.6403 2.75842 73.6403 3.87842V7.19042Z" fill="#A0A6AE"/>
</g>
<defs>
<linearGradient id="paint0_linear_11266_2696" x1="26.065" y1="24.3899" x2="6.41512" y2="24.3899" gradientUnits="userSpaceOnUse">
<stop stop-color="#0D7CFF"/>
<stop offset="0.5" stop-color="#2A3EFA"/>
<stop offset="1" stop-color="#2F1AD5"/>
</linearGradient>
<linearGradient id="paint1_linear_11266_2696" x1="30.313" y1="29.5242" x2="24.1889" y2="18.7864" gradientUnits="userSpaceOnUse">
<stop stop-color="#23D8FF"/>
<stop offset="1" stop-color="#0274FF"/>
</linearGradient>
<linearGradient id="paint2_linear_11266_2696" x1="8.37151" y1="18.608" x2="1.85511" y2="29.9731" gradientUnits="userSpaceOnUse">
<stop stop-color="#3E42FF"/>
<stop offset="1" stop-color="#5342FB"/>
</linearGradient>
<linearGradient id="paint3_linear_11266_2696" x1="16.6578" y1="5.46381" x2="28.9381" y2="27.1194" gradientUnits="userSpaceOnUse">
<stop stop-color="#3A26ED"/>
<stop offset="0.5" stop-color="#3953FF"/>
<stop offset="0.8" stop-color="#1E90FF"/>
<stop offset="1" stop-color="#19B6FF"/>
</linearGradient>
<linearGradient id="paint4_linear_11266_2696" x1="15.8909" y1="5.44981" x2="3.96913" y2="26.2919" gradientUnits="userSpaceOnUse">
<stop stop-color="#029AFF"/>
<stop offset="0.2" stop-color="#0185FF"/>
<stop offset="0.5" stop-color="#0847FF"/>
<stop offset="1" stop-color="#480FE9"/>
</linearGradient>
<linearGradient id="paint5_linear_11266_2696" x1="18.38" y1="2.20211" x2="14.1068" y2="8.60246" gradientUnits="userSpaceOnUse">
<stop stop-color="#01E6FF"/>
<stop offset="1" stop-color="#1093FF"/>
</linearGradient>
</defs>
</svg>
