<?xml version="1.0" encoding="UTF-8"?>
<svg id="Layer_1" xmlns="http://www.w3.org/2000/svg" xmlns:xlink="http://www.w3.org/1999/xlink" version="1.1" viewBox="0 0 52 52">
  <!-- Generator: Adobe Illustrator 29.8.1, SVG Export Plug-In . SVG Version: 2.1.1 Build 2)  -->
  <defs>
    <style>
      .st0 {
        fill: url(#linear-gradient);
      }

      .st1 {
        fill: #fff;
      }
    </style>
    <linearGradient id="linear-gradient" x1="26" y1="546" x2="26" y2="622" gradientTransform="translate(0 -546)" gradientUnits="userSpaceOnUse">
      <stop offset="0" stop-color="#92beff"/>
      <stop offset="1" stop-color="#416bcc"/>
    </linearGradient>
  </defs>
  <path class="st0" d="M26,0h0c14.36,0,26,11.64,26,26h0c0,14.36-11.64,26-26,26h0C11.64,52,0,40.36,0,26h0C0,11.64,11.64,0,26,0Z"/>
  <path class="st1" d="M26,26c-1.1,0-2.04-.39-2.83-1.18-.78-.78-1.17-1.72-1.17-2.82s.39-2.04,1.17-2.82c.78-.78,1.73-1.18,2.83-1.18s2.04.39,2.83,1.18c.78.78,1.17,1.72,1.17,2.82s-.39,2.04-1.17,2.82c-.78.78-1.73,1.18-2.83,1.18ZM18,32v-.8c0-.57.15-1.09.44-1.56s.68-.84,1.16-1.09c1.03-.52,2.08-.9,3.15-1.16s2.15-.39,3.25-.39,2.18.13,3.25.39,2.12.65,3.15,1.16c.48.25.87.61,1.16,1.09s.44,1,.44,1.56v.8c0,.55-.2,1.02-.59,1.41s-.86.59-1.41.59h-12c-.55,0-1.02-.2-1.41-.59s-.59-.86-.59-1.41Z"/>
</svg>