<svg width="120" height="40" fill="none" xmlns="http://www.w3.org/2000/svg"><path d="M83.496 6.25c.576 0 1.875.103 2.652.276l-.82 2.685h-1.086a2.673 2.673 0 0 0-2.673 2.673v1.208h4.41l-.871 2.875-.002.003H81.57v10.402a.98.98 0 0 1-.98.98h-2.756V15.97h-3.217l-4.268 12.1c-1.725 4.857-3.42 6.122-6.44 6.122-.576 0-1.495-.115-2.413-.288l.812-2.673h1.313c1.45 0 2.216-.45 2.717-1.716.5-1.266.513-1.462.517-1.475l-5.117-14.947h3.243c.431 0 .811.28.937.693l2.891 9.397 3.049-9.285c.2-.575.459-.805 1.034-.805h4.942v-.402c0-4.226 1.955-6.44 5.663-6.44ZM9.186 27.439l-2.299 2.299c-.231.23-.402.26-.69.173l-4.254-1.093c-.46-.115-.69-.346-.805-.805L.045 23.759c-.086-.288-.057-.46.173-.69l2.299-2.3 6.669 6.67ZM19.247 23.069c.231.231.26.402.173.69l-1.093 4.254c-.115.46-.346.69-.805.805l-4.254 1.093c-.288.086-.46.056-.69-.174l-2.3-2.298 6.67-6.67 2.299 2.3Z" fill="#fff" fill-opacity=".53"/><path fill-rule="evenodd" clip-rule="evenodd" d="M51.448 12.81c2.128 0 3.938.604 4.83 2.731l.086-1.64c0-.545.26-.805.719-.805h2.989v14.26h-2.989c-.459 0-.719-.26-.719-.805l-.087-1.64c-.891 2.125-2.701 2.731-4.829 2.731-3.909 0-6.352-3.535-6.352-7.416 0-3.881 2.443-7.416 6.352-7.416Zm1.062 2.98c-2.357 0-3.704 1.964-3.705 4.434 0 2.47 1.347 4.434 3.705 4.434 2.357 0 3.704-1.964 3.704-4.434s-1.347-4.434-3.704-4.434ZM92.106 12.81c2.128 0 3.938.604 4.83 2.731l.086-1.64c0-.545.26-.805.718-.805h2.99v14.26h-2.99c-.46 0-.718-.26-.718-.805l-.087-1.64c-.891 2.125-2.701 2.731-4.829 2.731-3.909 0-6.353-3.535-6.353-7.416 0-3.881 2.444-7.416 6.353-7.416Zm1.061 2.98c-2.357 0-3.704 1.964-3.704 4.434s1.347 4.434 3.704 4.434 3.704-1.964 3.704-4.434-1.347-4.434-3.704-4.434Z" fill="#fff" fill-opacity=".53"/><path d="m28.098 23.07 2.903-9.342c.143-.489.345-.632.834-.632h2.73c.49 0 .692.143.835.632l2.874 9.343 2.615-9.975h3.593L40.343 26.72c-.143.49-.344.632-.833.632H36.95c-.489 0-.69-.143-.833-.632l-3.047-9.6-3.018 9.6c-.143.49-.345.632-.834.632h-2.846c-.489 0-.69-.143-.834-.632l-4.138-13.624h4.11l2.587 9.975ZM107.612 27.352h-3.738V13.096h3.738v14.256ZM119.023 12.951c.258 0 .627.03.977.179l-.907 2.981h-.676c-2.472 0-3.908 1.611-3.908 4.111v7.128h-3.737V13.095h2.989c.461 0 .719.26.719.806l.058 2.375c.691-2.645 2.271-3.324 4.485-3.324ZM6.197 10.538c.288-.087.46-.057.69.172l2.299 2.3-6.669 6.668-2.3-2.298c-.23-.232-.258-.403-.172-.69l1.093-4.254c.115-.461.346-.691.805-.806l4.254-1.092ZM12.578 10.71c.231-.23.402-.259.69-.172l4.254 1.092c.46.115.69.347.805.806l1.093 4.253c.086.288.056.461-.173.69l-2.299 2.3-6.67-6.67 2.3-2.299ZM105.741 6.312c1.323 0 2.271.949 2.271 2.213 0 1.264-.948 2.212-2.271 2.212-1.322 0-2.27-.948-2.27-2.212 0-1.264.948-2.213 2.27-2.213Z" fill="#fff" fill-opacity=".53"/></svg>