<svg width="88" height="40" fill="none" xmlns="http://www.w3.org/2000/svg"><path fill-rule="evenodd" clip-rule="evenodd" d="M76.417 11.168s1.187-1.58 2.816-1.836c.143-.022.28-.03.41-.03.038 0 .072.008.11.008.087.005.173.013.253.03.042.011.083.025.125.036.07.021.136.041.197.069.041.019.077.038.116.06.056.03.111.064.161.102.036.025.07.052.103.082.047.041.091.089.133.135.028.033.058.066.083.102.042.051.078.112.111.17.023.039.044.074.064.113.033.068.06.146.089.22.014.038.03.071.041.11.036.117.067.238.086.367.03.204.044.42.039.671-.006.248-.03.531-.075.86l-.285 1.682-.636 3.659-.005.02.019-.005L88 15.567l-.649 3.655-.089.267-7.37 1.231a.406.406 0 0 1-.038.006l-.555.09c-.125.02-.25.02-.37.015-.06-.003-.118-.015-.177-.023a1.441 1.441 0 0 1-.225-.046 1.932 1.932 0 0 1-.163-.055 2.26 2.26 0 0 1-.2-.097c-.05-.027-.1-.055-.147-.087a1.694 1.694 0 0 1-.174-.138 1.803 1.803 0 0 1-.123-.116c-.053-.054-.097-.115-.141-.175-.03-.044-.066-.088-.094-.135a1.503 1.503 0 0 1-.103-.214c-.022-.05-.044-.097-.061-.146-.028-.082-.042-.173-.056-.261-.008-.047-.021-.089-.024-.135-.011-.137-.008-.28.014-.423l.873-5.612a1.297 1.297 0 0 0-.005-.223.505.505 0 0 0-.062-.165c-.008-.016-.022-.027-.033-.04a.523.523 0 0 0-.075-.078l-.055-.03c-.03-.014-.06-.027-.094-.036a.607.607 0 0 0-.225-.011c-.405.066-1.137.646-1.7 1.726l-1.22 6.97-3.102.487.244-1.418a6.892 6.892 0 0 1-1.722 1.465 6.415 6.415 0 0 1-2.3.82c-.307.048-.599.068-.877.07-.224 0-.44-.007-.645-.035h-.031a3.853 3.853 0 0 1-.613-.137c-.061-.019-.116-.047-.177-.069a3.194 3.194 0 0 1-.37-.16 4.285 4.285 0 0 1-.477-.315c-.058-.047-.113-.097-.168-.146a3.115 3.115 0 0 1-.247-.258c-.047-.055-.095-.11-.139-.168a3.38 3.38 0 0 1-.217-.335c-.03-.052-.066-.104-.097-.162a4.379 4.379 0 0 1-.244-.566c-.852 1.825-2.025 3.273-3.645 3.53a2.531 2.531 0 0 1-.426.035c-.13 0-.258-.011-.383-.034-.042-.005-.081-.019-.12-.027a2.288 2.288 0 0 1-.24-.069c-.045-.017-.087-.038-.131-.057a1.47 1.47 0 0 1-.333-.19 2.194 2.194 0 0 1-.294-.256 1.808 1.808 0 0 1-.158-.192c-.031-.044-.064-.085-.095-.132-.052-.08-.1-.17-.144-.261-.025-.044-.05-.086-.07-.132a3.63 3.63 0 0 1-.166-.468c-.801 1.438-1.822 2.472-3.164 2.683a2.584 2.584 0 0 1-.403.033h-.085a2.576 2.576 0 0 1-.475-.056l-.041-.013a2.012 2.012 0 0 1-.408-.148h-.006a1.94 1.94 0 0 1-.333-.212c-.011-.009-.022-.015-.03-.023a1.968 1.968 0 0 1-.28-.269 2.853 2.853 0 0 1-.175-.228c-.009-.01-.017-.025-.025-.036a3.671 3.671 0 0 1-.117-.197l-.013-.028a1.453 1.453 0 0 1-.067-.14c-.003-.005-.006-.008-.006-.014a1.06 1.06 0 0 0-.019-.05c-.006.013-.99 1.931-2.56 2.178a1.953 1.953 0 0 1-.574 0 2.061 2.061 0 0 1-.231-.044 2 2 0 0 1-.516-.237 1.434 1.434 0 0 1-.182-.14c-.044-.038-.09-.077-.131-.118-.056-.055-.108-.119-.161-.182a2.17 2.17 0 0 1-.252-.368c-.03-.05-.061-.099-.089-.151a2.915 2.915 0 0 1-.125-.286c-.022-.05-.044-.093-.06-.146a4.615 4.615 0 0 1-.14-.47 9.034 9.034 0 0 1-1.037 1.619 5.11 5.11 0 0 1-.81.792c-.427.33-.89.548-1.392.627a2.336 2.336 0 0 1-.721.005c-.031-.005-.059-.014-.087-.019a2.361 2.361 0 0 1-.238-.061c-.038-.01-.075-.03-.113-.043a2.959 2.959 0 0 1-.195-.091c-.039-.022-.077-.047-.117-.072a1.868 1.868 0 0 1-.171-.126c-.037-.03-.072-.064-.108-.096a1.773 1.773 0 0 1-.159-.168c-.03-.035-.063-.071-.094-.112a3.18 3.18 0 0 1-.147-.23c-.022-.04-.047-.076-.07-.117a3.208 3.208 0 0 1-.18-.415c-.64 1.281-1.47 2.152-2.626 2.334-.13.02-.258.028-.386.028-.024 0-.05-.006-.074-.006a1.862 1.862 0 0 1-.284-.027c-.041-.006-.08-.02-.121-.03a1.301 1.301 0 0 1-.347-.124 2.092 2.092 0 0 1-.192-.102 1.997 1.997 0 0 1-.557-.527 1.59 1.59 0 0 1-.236-.391c-.022-.044-.047-.085-.066-.132a3.369 3.369 0 0 1-.165-.464 6.624 6.624 0 0 1-.82 1.16c-.3.332-.63.601-.99.791.08.132.147.267.205.41.17.428.241.937.23 1.635a12.223 12.223 0 0 1-.216 2.062c-.07.379-.158.766-.261 1.154-.521 1.932-1.479 3.792-2.913 4.018-.133.019-.258.03-.38.03a2.46 2.46 0 0 1-.285-.02c-.017-.002-.03-.002-.044-.002a1.904 1.904 0 0 1-.309-.069c-.033-.01-.06-.024-.091-.035-.067-.027-.133-.05-.197-.083-.036-.02-.07-.044-.106-.063a1.853 1.853 0 0 1-.157-.099c-.037-.024-.07-.054-.103-.082a1.658 1.658 0 0 1-.233-.223 1.954 1.954 0 0 1-.203-.258l-.1-.157c-.024-.043-.05-.093-.074-.14a3.47 3.47 0 0 1-.086-.176c-.022-.052-.045-.104-.064-.157a9.976 9.976 0 0 1-.12-.36c-.02-.068-.036-.143-.052-.214a3.537 3.537 0 0 1-.075-.413 4.903 4.903 0 0 1-.022-.186c-.008-.083-.011-.17-.017-.256-.005-.063-.01-.127-.01-.192-.004-.094 0-.188 0-.281.002-.066-.001-.127.002-.192.005-.107.014-.217.025-.327.006-.055.008-.11.014-.168.02-.167.044-.337.075-.514l.676-4.295c-.424.49-1.068 1.074-1.892 1.203a1.891 1.891 0 0 1-.41.02c-.063-.003-.125-.014-.186-.022a1.663 1.663 0 0 1-.629-.203c-.053-.03-.106-.06-.156-.094a2.559 2.559 0 0 1-.19-.149c-.048-.04-.093-.08-.137-.123a2.26 2.26 0 0 1-.166-.19 2.098 2.098 0 0 1-.258-.382c-.03-.052-.061-.102-.09-.157-.046-.093-.082-.195-.121-.294-.02-.05-.042-.096-.059-.146a3.758 3.758 0 0 1-.127-.478c-.109-.533-.164-1.352-.13-2.295a15.51 15.51 0 0 1 .405-3.015c.186-.761.444-1.492.785-2.124.568-1.055 1.375-1.835 2.493-2.012.136-.024.267-.032.389-.032l.08.002a2.114 2.114 0 0 1 .477.058c.144.033.272.082.391.14.02.008.042.016.062.027.11.058.213.124.305.193.016.01.033.025.05.038.09.074.171.149.244.223l.022.022c.069.074.13.149.18.22.008.008.014.017.02.025.052.071.094.137.127.198.008.01.014.025.02.033.03.055.052.101.068.134.02.038.031.063.031.063s0-.008-.006-.021l.25-1.474 3.118-.489-1.664 9.465c.077.01.157.014.235.01.042 0 .08-.005.123-.01.047-.006.094-.011.14-.022.04-.01.082-.022.12-.035.045-.017.092-.03.136-.05.042-.017.08-.035.12-.055.044-.025.088-.047.133-.074.039-.022.075-.047.113-.074.042-.03.087-.064.128-.096.036-.03.075-.063.11-.096.043-.037.081-.075.123-.116.039-.036.075-.074.11-.113.04-.043.081-.088.12-.134.036-.041.07-.085.105-.13.04-.049.078-.1.117-.153a2.54 2.54 0 0 0 .102-.143c.037-.054.075-.112.112-.17l.096-.154a12.009 12.009 0 0 0 .2-.35l.106-.202.086-.174.103-.22c.027-.057.055-.114.08-.172.033-.08.069-.16.102-.243.025-.055.047-.109.072-.167.036-.087.07-.178.106-.267l.06-.156c.04-.102.076-.203.112-.305.014-.044.033-.085.047-.13.053-.145.103-.293.15-.442l.946-5.458 3.1-.487-1.109 6.424c-.038.23-.072.437-.097.627-.003.019-.009.038-.009.057-.022.179-.038.333-.05.476-.002.022-.005.043-.005.063a4.36 4.36 0 0 0-.013.358v.051c.002.1.008.188.019.262 0 .01.005.022.005.033a.9.9 0 0 0 .044.184l.01.017a.373.373 0 0 0 .07.12c.026.028.057.05.09.061a.256.256 0 0 0 .108.022h.014c.025 0 .05-.003.075-.005.338-.052.621-.37.985-1.198.216-.497.463-1.179.768-2.097l1.001-5.752 3.101-.487-1.109 6.423c-.025.151-.05.292-.07.426l-.016.118c-.014.088-.025.176-.036.259-.005.046-.008.088-.014.132-.008.069-.017.14-.022.203-.006.044-.009.082-.011.123-.006.056-.012.116-.014.168-.003.041-.006.077-.006.113-.003.049-.006.096-.006.142v.215c0 .03.003.06.003.088l.009.099.008.071c.006.03.008.058.014.083.003.02.005.038.01.058l.034.115c.008.022.017.039.025.056.005.013.012.024.017.035a.199.199 0 0 0 .028.041l.016.025c.011.014.025.022.037.033.005.003.01.01.016.013.02.011.036.023.056.03.003.003.008.003.01.003.017.006.031.012.048.014h.058c.022 0 .044-.002.066-.005.42-.066.885-.61 1.385-1.67.3-.638.613-1.46.934-2.48.12-1.14.372-2.364.81-3.405.125-.297.267-.58.425-.844.157-.26.333-.502.524-.72.48-.538 1.074-.909 1.797-1.024.13-.023.255-.031.375-.031h.08c.164.003.32.02.46.052.015.003.026.011.04.011a2.328 2.328 0 0 1 .408.146c.121.06.232.129.332.203.012.008.023.014.033.022.095.071.178.149.253.223l.036.035c.07.075.13.149.186.217.008.011.016.026.024.036.05.069.094.132.128.187l.017.028c.033.052.058.098.075.131.002.006.005.009.008.014l.022.047.267-1.478 3.103-.49-1.11 6.426c-.025.154-.049.297-.068.431l-.02.138c-.014.085-.025.168-.035.248l-.018.14c-.008.068-.016.134-.022.197a2.013 2.013 0 0 0-.01.13c-.006.055-.012.112-.015.164-.003.042-.005.077-.005.116-.003.049-.006.096-.006.14v.22c.003.03.003.058.003.085 0 .033.003.066.006.096l.008.071a.742.742 0 0 0 .011.08c.003.02.005.038.01.058l.018.066c.005.016.008.03.014.044.008.019.013.036.021.052.006.01.01.022.015.033.008.016.019.027.027.04a.06.06 0 0 0 .014.023c.011.013.025.025.036.036.003.003.006.008.008.008a.27.27 0 0 0 .061.033c.012.002.023.008.034.008h.047a.35.35 0 0 0 .055-.006c.63-.099 1.52-1.423 2.363-4.059l.935-5.39-1.4.22.355-1.934 1.367-.215.444-2.22 3.1-.487-.443 2.218 2.538-.415-.352 1.935-2.505.41-1.11 6.423c-.027.151-.049.291-.068.423l-.017.129c-.011.082-.026.168-.034.245l-.013.137-.02.198a31.344 31.344 0 0 1-.025.407c-.003.049-.002.096-.002.14v.101c.002.042.005.08.005.116 0 .03.003.058.006.085.002.033.005.067.01.1a.794.794 0 0 1 .012.07c.005.03.01.056.017.083.005.02.008.042.013.058.006.025.014.047.022.069l.017.044c.011.022.02.041.03.058l.017.033c.014.016.025.032.039.046a.048.048 0 0 0 .013.02.48.48 0 0 0 .059.046c.006 0 .008.003.014.005a.338.338 0 0 0 .05.022c.008.003.016.006.025.006.013.003.028.008.042.008h.063a.38.38 0 0 0 .078-.006c.4-.066.826-.467 1.26-1.187.216-.36.432-.803.651-1.32.22-.516.435-1.112.65-1.783.182-1.943.942-4.108 2.587-5.27a4.589 4.589 0 0 1 2.979-.822c.08.007.16.018.241.032.056.008.114.02.17.03.08.017.157.039.232.063.05.017.1.03.148.047.08.03.158.066.235.105.04.02.078.033.115.055.11.06.216.13.315.206.003.003.006.008.012.01.094.075.185.158.269.246.03.032.055.068.082.101.056.066.112.132.162.203.03.044.055.091.083.135.042.069.086.14.122.214.028.052.05.108.072.163.033.074.064.15.092.233.019.06.035.124.055.187.025.082.044.17.064.258a4 4 0 0 1 .038.206c.014.094.029.187.037.286.008.074.014.146.02.223.008.101.007.209.007.319v.233c-.002.115-.01.239-.022.36-.005.077-.01.157-.02.236-.016.137-.038.28-.06.426-.011.072-.02.14-.033.214-.039.22-.089.448-.148.685l-3.1.49c.066-.284.127-.537.18-.774a.544.544 0 0 1 .013-.062c.047-.223.092-.418.128-.6a16.59 16.59 0 0 0 .111-.61 5.692 5.692 0 0 0 .045-.401 1.927 1.927 0 0 0 0-.253.147.147 0 0 1-.006-.03.535.535 0 0 0-.041-.17c-.003-.006-.009-.009-.009-.014a.275.275 0 0 0-.089-.096c-.003-.003-.005-.003-.008-.003a.297.297 0 0 0-.136-.03h-.003a.689.689 0 0 0-.1.008c-1.42.223-2.05 3.702-1.838 5.018.025.162.069.3.121.423.014.036.033.07.05.102.045.088.095.165.15.233.02.023.036.05.056.07.075.079.158.148.246.203.017.011.034.016.05.024.078.041.156.077.239.104l.086.026c.078.021.158.037.239.048.02 0 .038.009.058.009.094.01.191.01.282.01.078 0 .147-.005.217-.01.028-.003.061-.003.089-.006a4.144 4.144 0 0 0 .896-.19c1.498-.492 2.826-1.866 3.578-4.136l2.02-11.719 3.1-.486-1.245 7.418ZM31.33 33.27c-.017.112-.03.214-.042.307l-.009.083c-.005.058-.013.118-.016.168a.399.399 0 0 0-.006.08c-.002.041-.002.082-.002.118l.002.066.008.085c.004.016.006.036.012.05.005.019.01.037.02.054l.019.033a.13.13 0 0 0 .033.033.084.084 0 0 0 .028.02c.014.008.03.01.047.013a.405.405 0 0 0 .133 0 .51.51 0 0 0 .291-.179c.136-.151.258-.388.37-.679.074-.195.143-.412.207-.648.215-.796.374-1.774.493-2.607l.112-.776c.153-1.06-.372-1.526-.832-1.603l-.868 5.382ZM29.466 20.19a.98.98 0 0 0-.48.236c-.297.256-.55.685-.752 1.196-.1.255-.19.527-.266.81-.04.14-.072.283-.105.426a10.96 10.96 0 0 0-.2 1.256c-.05.528-.048.984.014 1.276.025.099.058.176.096.242.012.02.028.032.043.052.03.038.06.071.097.096.018.014.038.022.06.033.036.016.075.03.114.036a.882.882 0 0 0 .259.002 1.125 1.125 0 0 0 .349-.117c.096-.052.186-.116.271-.187.011-.006.023-.017.034-.025.08-.069.155-.148.224-.23l.034-.04c.066-.082.127-.164.182-.25l.028-.04a4.174 4.174 0 0 0 .264-.49l.011-.025c.025-.06.047-.113.06-.149v-.005c.014-.036.02-.06.02-.06-.002 0-.005.008-.01.021l.554-3.138v-.003c-.003-.01-.008-.038-.017-.07-.003-.014-.008-.026-.01-.042l-.031-.101c-.009-.02-.014-.039-.022-.061a.77.77 0 0 0-.047-.118c-.009-.025-.02-.047-.031-.069-.022-.046-.05-.088-.078-.132l-.033-.052a.897.897 0 0 0-.15-.157c-.01-.009-.022-.012-.033-.02a.682.682 0 0 0-.161-.08c-.025-.008-.053-.008-.078-.013-.066-.008-.133-.019-.21-.008Zm21.726-3.408a.853.853 0 0 0-.238.077c-.308.151-.574.492-.796.934-.055.11-.108.228-.158.35a6.87 6.87 0 0 0-.264.775 9.842 9.842 0 0 0-.346 1.995c-.023.36-.017.67.018.898.02.127.05.229.087.314.01.03.027.046.041.071.028.05.056.096.092.129.02.019.044.034.067.047a.416.416 0 0 0 .113.055c.028.005.058.01.086.013.06.006.12.011.189 0 .235-.038.447-.156.63-.31.091-.077.174-.165.252-.256.155-.184.28-.382.375-.555.138-.256.213-.454.216-.461l.002.005.558-3.15s-.005-.013-.011-.04c0-.006-.006-.018-.006-.026a1.278 1.278 0 0 0-.025-.085l-.019-.055c-.011-.033-.022-.066-.036-.102l-.034-.068c-.016-.036-.033-.072-.052-.107a1.135 1.135 0 0 0-.048-.075 1.314 1.314 0 0 0-.068-.1c-.02-.026-.042-.048-.065-.07-.028-.027-.055-.055-.088-.08a.503.503 0 0 0-.08-.048.622.622 0 0 0-.109-.05c-.03-.011-.066-.014-.1-.02-.058-.008-.116-.016-.183-.005Z" fill="#fff" fill-opacity=".53"/><path d="M24.04 4.995c.163.002.33.016.5.032.08.01.158.012.24.022.253.036.51.086.777.157 3.01.803 3.004 3.895 2.71 6.052-.05.36-.105.693-.158.987-.053.294-.1.547-.13.742-.57.093-3.454.671-4.067 1.057l-.044.034c.16-.404.302-.79.422-1.155.357-1.097.527-2.018.504-2.765a4.696 4.696 0 0 0-.066-.673c-.108-.602-.341-1-.677-1.3-.1-.088-.205-.16-.31-.217l-.084-.041a1.275 1.275 0 0 0-.324-.116c-.003-.003-.009-.003-.011-.003a1.316 1.316 0 0 0-.36-.02l-.092.009c-.125.016-.253.039-.386.083-.45.148-.868.46-1.254.939a5.229 5.229 0 0 0-.96 1.869 9.738 9.738 0 0 0-.316 1.764c-.072.853.02 1.782.28 2.793.064.253.145.508.239.77.189.519.436 1.058.74 1.61.153.275.322.555.503.841a14.717 14.717 0 0 1 1.353 2.628c.04.104.073.206.108.31.264.745.44 1.476.514 2.188.16 1.509-.037 2.877-.558 4.114-.039.088-.064.184-.105.272a8.717 8.717 0 0 1-.517.934 7.955 7.955 0 0 1-1.358 1.608 8.39 8.39 0 0 1-.844.674 9.273 9.273 0 0 1-1.944 1.039 9.597 9.597 0 0 1-2.25.562 8.603 8.603 0 0 1-1.506.053c-.108-.006-.219-.008-.324-.017-.183-.016-.363-.047-.544-.074-.083-.01-.17-.019-.252-.035a7.788 7.788 0 0 1-.76-.185c-.023-.008-.041-.016-.064-.022a8.425 8.425 0 0 1-.66-.236c-.08-.033-.159-.074-.239-.11-.15-.066-.3-.132-.444-.209-.089-.047-.175-.102-.26-.15-.128-.075-.258-.15-.38-.229-.089-.057-.173-.12-.258-.181-.114-.083-.228-.163-.339-.25-.083-.067-.163-.135-.243-.204a6.946 6.946 0 0 1-.536-.497 5.647 5.647 0 0 1-.277-.294 5.08 5.08 0 0 1-.208-.242 13.942 13.942 0 0 1-.247-.313c-.063-.085-.125-.168-.186-.256-.078-.107-.15-.22-.221-.332a13.542 13.542 0 0 1-.161-.261 23.073 23.073 0 0 1-.195-.357c-.044-.088-.09-.173-.132-.261-.061-.127-.115-.253-.17-.382-.036-.085-.072-.168-.105-.253-.053-.143-.1-.286-.148-.431-.022-.072-.05-.144-.07-.215a6.898 6.898 0 0 1-.16-.651L0 28.029l.85-3.576 11.99-1.803a8.496 8.496 0 0 0-.044.48c-.006.108-.01.218-.012.328-.003.03-.003.06-.003.09-.002.2 0 .404.014.61.011.176.031.352.059.525.227 1.457 1.04 2.825 3.231 3.018.166.014.316 0 .466-.008a2.96 2.96 0 0 0 .275-.028c.105-.018.202-.046.302-.074.08-.024.164-.046.239-.076.094-.039.177-.085.263-.135.07-.039.142-.075.205-.121.08-.058.153-.127.225-.192.055-.053.113-.102.166-.16.066-.078.125-.165.184-.25.044-.064.09-.124.13-.19.055-.099.1-.207.144-.311.03-.069.066-.134.091-.206.042-.123.072-.255.106-.387.014-.066.036-.126.05-.195.038-.203.067-.418.078-.638.058-1.085-.259-2.371-.566-3.33a24.437 24.437 0 0 0-.458-1.43c-.852-2.872-1.196-5.252-1.032-7.148.158-1.886.635-3.603 1.45-4.684a10.914 10.914 0 0 1 .35-.439l.084-.096.147-.165.097-.105c.052-.057.11-.115.169-.175.033-.039.07-.075.105-.11.066-.066.139-.135.211-.201.03-.03.061-.058.094-.088.108-.096.222-.192.339-.289l.053-.04c.105-.08.207-.16.318-.24.042-.03.086-.057.131-.088.089-.06.177-.12.272-.179.053-.03.105-.063.158-.093.088-.052.183-.104.277-.154.058-.03.116-.06.175-.088.097-.047.2-.09.302-.135.058-.024.117-.05.178-.074.122-.047.246-.088.374-.126l.133-.044c.172-.05.352-.094.535-.127l.126-.016A5.505 5.505 0 0 1 23.68 5c.119-.005.238-.005.36-.005Z" fill="#fff" fill-opacity=".53"/><path fill-rule="evenodd" clip-rule="evenodd" d="M5.67 17.937c1.25.03 1.63.895 1.354 1.945-.275 1.037-1.088 1.954-2.336 2.435-.327.127-.68.231-1.068.29l-.003.002-2.56.387 1.21-4.595 2.793-.423a3.55 3.55 0 0 1 .569-.041h.041Zm-1 1.256c-.121.003-.254.01-.41.035l-.64.094c-.424 1.61-.477 1.789-.59 2.229l.624-.093c.526-.08.937-.287 1.24-.548.255-.223.435-.484.507-.764.089-.335.08-.613-.103-.783a.51.51 0 0 0-.097-.066c-.017-.01-.03-.022-.05-.03a.912.912 0 0 0-.208-.06h-.028a1.684 1.684 0 0 0-.244-.014ZM11.686 16.997c.097 0 .185.005.27.014.018.005.043.002.063.005.102.016.194.038.277.068.022.011.042.023.064.033a.805.805 0 0 1 .152.086.414.414 0 0 1 .064.055.685.685 0 0 1 .094.104c.017.022.031.047.045.072.008.016.014.033.02.05.083.19.094.423.019.706-.172.662-.871 1.258-1.675 1.588.257.291.64.673.96 1.006.105.113.204.217.287.31l-.119.207-1.667.252-.022-.025-1.22-1.346-.208.033-.428 1.624-.008-.008-1.642.25 1.204-4.592 2.99-.454c.177-.024.333-.038.48-.038Zm-1.043 1.16-1.054.159-.003.003-.197.747 1.013-.154a1.15 1.15 0 0 0 .26-.074c.233-.099.381-.259.414-.38a.26.26 0 0 0 .005-.112c-.003-.01-.01-.022-.014-.033a.175.175 0 0 0-.039-.071.334.334 0 0 0-.122-.071.752.752 0 0 0-.263-.014Z" fill="#fff" fill-opacity=".53"/><path d="M14.002 19.616a.435.435 0 0 1 .233.088c.025.02.05.033.07.055.035.036.055.085.074.135.008.025.025.044.03.071a.644.644 0 0 1-.008.28 1.057 1.057 0 0 1-.152.333 1.339 1.339 0 0 1-.17.206c-.188.19-.438.332-.688.376a.697.697 0 0 1-.209.01l-.065-.006c-.283-.055-.438-.295-.357-.632.105-.443.557-.84 1.004-.916.088-.02.163-.008.238 0Z" fill="#fff" fill-opacity=".53"/></svg>