<svg width="135" height="40" fill="none" xmlns="http://www.w3.org/2000/svg"><path fill-rule="evenodd" clip-rule="evenodd" d="M58.556 11.875c4.493 0 8.147 3.648 8.148 8.132 0 4.485-3.655 8.133-8.147 8.133-4.493 0-8.148-3.648-8.148-8.133 0-4.484 3.655-8.132 8.148-8.132Zm0 1.085c-3.893 0-7.06 3.161-7.06 7.047 0 3.887 3.167 7.049 7.06 7.049 3.894 0 7.061-3.162 7.061-7.049 0-3.886-3.167-7.047-7.06-7.047ZM100.28 11.875c2.77 0 5.222 1.36 6.716 3.437l-.938-2.678c-.068-.155.045-.312.226-.312h5.029c.203 0 .383.157.428.312l2.369 9.156 2.368-9.156a.467.467 0 0 1 .428-.312h5.029c.181 0 .294.157.226.312l-5.165 14.747a.463.463 0 0 1-.406.312h-4.962c-.18 0-.36-.156-.405-.312l-2.72-7.764c.006.13.011.26.011.39 0 4.485-3.694 8.133-8.234 8.133-4.14 0-7.574-3.033-8.148-6.968v6.209a.326.326 0 0 1-.338.312h-3.901c-.159 0-.362-.111-.474-.29l-3.925-6.927v6.905c0 .155-.134.31-.336.312h-4.707l-9.747-13.806v13.816h-.982V12.316h.982l9.754 13.793V12.316h.478l.902.006h3.228c.203 0 .428.112.519.29l3.901 6.928v-6.884c0-.178.158-.334.316-.334h3.992a.33.33 0 0 1 .338.334v6.188c.574-3.935 4.008-6.969 8.148-6.969Zm0 4.563c-1.993 0-3.615 1.602-3.615 3.57 0 1.968 1.622 3.57 3.615 3.57 1.992 0 3.613-1.602 3.613-3.57 0-1.968-1.621-3.57-3.613-3.57ZM129.339 12.322c.225 0 .473.156.541.29l5.097 14.792c.068.133-.022.289-.203.289h-4.465a.524.524 0 0 1-.473-.29l-.677-2.338h-4.241l-.676 2.339a.527.527 0 0 1-.473.289h-4.467c-.179 0-.269-.156-.202-.29l5.097-14.791c.068-.134.316-.29.541-.29h4.601Zm-3.518 9.557h2.435l-1.217-4.233-1.218 4.233Z" fill="#fff" fill-opacity=".53"/><path d="M7.638 13.253H.974v6.434h6.398v.87H.974v7.075H0V12.383h7.638v.87ZM27.34 11.875c.675 0 1.323.076 1.946.228a7.423 7.423 0 0 1 1.676.617l-.225.868a9.698 9.698 0 0 0-1.654-.617 6.482 6.482 0 0 0-1.698-.228c-.945 0-1.73.217-2.352.65-.623.434-.934 1.1-.934 1.999 0 .442.064.819.192 1.13.127.312.318.594.573.845.255.251.574.491.956.72.383.228.837.464 1.362.707.48.228.979.484 1.496.765.517.282.99.61 1.418.982.427.374.78.803 1.057 1.29.277.488.416 1.059.416 1.713 0 .594-.116 1.142-.348 1.644-.233.502-.56.937-.98 1.302-.42.365-.922.647-1.507.845a6.013 6.013 0 0 1-1.935.297c-.675 0-1.383-.08-2.125-.24-.743-.16-1.384-.369-1.924-.628l.247-.845a10.52 10.52 0 0 0 1.822.628c.6.145 1.245.217 1.935.217 1.17 0 2.1-.286 2.79-.856.69-.571 1.036-1.352 1.036-2.341 0-.533-.106-.99-.316-1.37a3.783 3.783 0 0 0-.82-1.016 5.904 5.904 0 0 0-1.16-.788 56.83 56.83 0 0 0-1.35-.685 31.835 31.835 0 0 1-1.54-.81 5.867 5.867 0 0 1-1.215-.891 3.632 3.632 0 0 1-.788-1.108c-.188-.411-.282-.898-.282-1.461 0-.61.116-1.139.35-1.588.231-.448.543-.818.933-1.107.39-.289.84-.506 1.35-.651a5.824 5.824 0 0 1 1.598-.217ZM34.094 19.435h9.207v-7.052h.998v15.249h-.998V20.35h-9.207v7.28h-.997V12.384h.997v7.052ZM48.372 27.632h-1.018V12.383h1.018v15.249Z" fill="#fff" fill-opacity=".53"/><path fill-rule="evenodd" clip-rule="evenodd" d="M20.703 27.358h-.991l-1.575-4.11H10.69l-1.553 4.11h-.99l5.917-15.209h.72l5.918 15.209Zm-9.676-4.978h6.795l-3.398-8.952-3.397 8.952Z" fill="#fff" fill-opacity=".53"/></svg>