<svg width="73" height="40" fill="none" xmlns="http://www.w3.org/2000/svg"><path fill-rule="evenodd" clip-rule="evenodd" d="M6.933 11.89c4.303 0 6.95 3.27 6.95 8.058 0 4.787-2.648 8.055-6.95 8.055-1.783 0-3.165-.888-4.096-1.713V35H0V12.22h2.837v1.383c.931-.825 2.315-1.713 4.096-1.713Zm-.11.94c-1.486 0-3.192.93-3.986 2.135v9.964c.794 1.204 2.489 2.133 3.985 2.133 2.397 0 3.961-2.015 3.961-7.116 0-5.101-1.566-7.117-3.96-7.117ZM66.142 11.892c4.333 0 6.832 3.112 6.858 7.99h-.004l.004.007-.002.002H62.09v.059c0 5.1 1.533 7.257 4.052 7.257 1.981 0 3.35-1.349 3.845-4.395l2.73.71c-1.001 2.907-3.299 4.482-6.575 4.482-4.352 0-7.135-3.269-7.135-8.056 0-4.788 2.802-8.056 7.135-8.056Zm0 .796c-2.354 0-3.845 1.884-4.032 6.29h7.77c-.15-4.51-1.382-6.29-3.738-6.29ZM35.732 11.89c4.352 0 7.135 3.268 7.135 8.056 0 4.787-2.783 8.055-7.135 8.055s-7.135-3.268-7.135-8.055c0-4.788 2.783-8.056 7.135-8.056Zm0 .798c-2.528 0-4.086 2.138-4.086 7.258s1.558 7.257 4.086 7.257c2.528 0 4.067-2.137 4.068-7.257 0-5.12-1.54-7.258-4.068-7.258Z" fill="#fff" fill-opacity=".53"/><path d="M50.3 11.892c2.953 0 5.425 1.416 5.94 4.034l-2.498.65c-.358-2.729-1.561-3.886-3.44-3.886-1.429 0-2.756 1.202-2.756 2.678 0 1.272.974 2.283 3 2.86l1.581.453-.002-.002c2.833.82 4.703 1.876 4.703 4.51 0 2.636-2.278 4.812-5.555 4.812-3.276 0-5.892-1.6-6.45-4.513l2.605-.678c.414 3.063 1.95 4.395 3.846 4.395 1.895 0 3.324-1.405 3.324-3.02s-1.49-2.41-3.428-2.955l-1.58-.454c-2.713-.787-4.123-2.397-4.123-4.508 0-2.68 2.462-4.376 4.833-4.376ZM23.13 11.875c.646 0 1.099.206 2.13 1.18l1.03.973c.39.368.692.535.995.535v.002c.218 0 .466-.119.71-.397l.349.27c-.333.695-1.342 2.294-2.14 2.294-.61 0-.904-.282-1.508-.853l-1.031-.973c-.645-.606-.917-.83-1.449-.83-.915 0-1.77.911-2.644 2.119v11.478h-2.837V12.22h2.837v2.69c.478-.691.918-1.204 1.508-1.818.759-.79 1.406-1.217 2.05-1.217Z" fill="#fff" fill-opacity=".53"/></svg>