<svg width="118" height="40" fill="none" xmlns="http://www.w3.org/2000/svg"><path d="M4.504 10c2.97 0 4.524 1.763 4.524 4.837v1.86H6.155v-2.056c0-1.37-.61-1.9-1.573-1.9s-1.573.53-1.573 1.9V25.04c0 1.37.61 1.86 1.573 1.86.964 0 1.573-.49 1.573-1.86v-3.544H4.78v-2.742h4.249v6.09c0 3.075-1.535 4.837-4.524 4.837C1.514 29.68 0 27.919 0 24.844V14.837C0 11.763 1.534 10 4.504 10ZM40.415 10c2.95 0 4.465 1.763 4.465 4.837v.607h-2.853v-.803c0-1.37-.55-1.9-1.514-1.9-.963 0-1.514.53-1.514 1.9 0 3.956 5.92 4.7 5.92 10.184 0 3.073-1.534 4.836-4.524 4.836s-4.504-1.762-4.504-4.836v-1.176h2.872v1.39c0 1.372.61 1.862 1.574 1.862.963 0 1.572-.49 1.572-1.861 0-3.956-5.92-4.7-5.92-10.184C35.97 11.763 37.465 10 40.415 10ZM27.868 23.884l2.064-13.65h4.21v19.231H31.29V15.68l-2.085 13.786h-2.872l-2.261-13.59v13.59h-2.635v-19.23h4.209l2.222 13.649ZM49.678 18.48h3.44v-8.246h3.089v19.231h-3.088v-8.244h-3.441v8.244h-3.029v-19.23h3.029v8.245Z" fill="#fff" fill-opacity=".53"/><path fill-rule="evenodd" clip-rule="evenodd" d="M65.096 10.234c.02 0 3.076 19.157 3.088 19.231h-3.048l-.53-3.505h-3.717l-.533 3.505h-2.772l3.087-19.23h4.425ZM61.28 23.356h2.93l-1.455-9.733-1.475 9.733ZM74.162 10.234c3.148 0 4.485 1.45 4.485 4.426v1.51c0 1.976-.63 3.269-1.987 3.895 1.514.628 2.007 2.096 2.007 4.093v2.978c0 .94.019 1.625.334 2.33h-3.068c-.158-.49-.276-.804-.276-2.37V24.08c0-1.781-.61-2.448-1.986-2.448h-1.043v7.833H69.6v-19.23h4.563Zm-1.534 8.637h1.18c1.122 0 1.81-.49 1.81-2.037v-1.88c0-1.37-.472-1.977-1.533-1.977h-1.457v5.894Z" fill="#fff" fill-opacity=".53"/><path d="m83.682 18.617 3.971-8.383h3.03l-4.209 8.578 4.208 10.653h-3.106l-2.951-7.675-.943 1.762v5.913h-3.029v-19.23h3.029v8.382ZM15.065 19.008l2.32-8.774h2.89l-3.853 12.847v6.365h-3.03v-6.365L9.578 10.234h3.167l2.321 8.774ZM118 10.216l-17.621 19.23.963-1.488-.275-.098-.688-1.43-1.298.646-.315-.117-.63-1.233-1.14.547-4.229-1.644h3.206l1.082 1.037 1.042-1.037h.354l1.042 1.037 1.042-1.037h.296l1.082 1.018 1.042-1.018h.609l7.415-11.339-18.212-3.074H118Z" fill="#fff" fill-opacity=".53"/><path d="m103.191 16.345-3.187.353-4.228-2.115 7.415 1.762Z" fill="#fff" fill-opacity=".53"/></svg>