<svg width="138" height="40" fill="none" xmlns="http://www.w3.org/2000/svg"><path d="M59.55 12.295c3.028 0 5.728.863 7.553 2.372l.182.144-1.824 1.94-.146-.143c-1.387-1.186-3.285-1.833-5.693-1.833-1.569-.036-3.539.252-4.342 1.042-.255.252-.365.451-.365.827 0 1.258 2.19 1.51 5.291 1.762h-.036c4.013.323 7.699 1.402 7.699 4.35 0 2.947-4.306 4.78-7.7 4.78-3.393 0-6.385-.97-8.61-2.876l-.146-.143 1.788-2.014.145.144c1.861 1.654 3.941 2.409 6.933 2.409s4.707-.827 4.707-2.085c0-1.259-1.679-1.618-5.181-1.905-3.357-.288-7.809-1.546-7.809-4.242 0-2.696 3.029-4.529 7.553-4.53ZM73.196 18.514h10.326V12.69h2.847v14.415h-2.847v-6.04H73.196v6.04H70.35V12.69h2.846v5.824ZM92.097 24.553h10.473v2.552H89.215V12.69h2.882v11.863ZM119.208 15.206h-11.53v3.308h9.706v2.516h-9.706v3.559h11.713v2.516h-14.559V12.69h14.376v2.516ZM129.388 19.664l5.255-6.974H138l-7.189 9.418v4.997h-2.882v-4.997l-7.188-9.418h3.321l5.326 6.974Z" fill="#fff" fill-opacity=".53"/><path fill-rule="evenodd" clip-rule="evenodd" d="m41.014 9.383 9.705 17.685h-3.357l-2.299-4.277h-11.53l-2.299 4.277h-3.32L37.62 9.384h3.394Zm-6.131 10.856h8.757l-4.379-8.196-4.378 8.196Z" fill="#fff" fill-opacity=".53"/><path d="M19.047 17.579 9.56 8.125h-.036L0 17.579v9.49h19.01v-9.49h.037Zm-2.7 6.65c0 .18-.037.216-.219.216H2.883c-.183 0-.183-.144-.183-.216v-5.284c0-.252 0-.288.183-.468.182-.18 6.349-6.29 6.385-6.362.11-.108.183-.144.256-.144.073 0 .145.072.218.144l6.495 6.434c.11.108.11.144.11.288v5.392Z" fill="#fff" fill-opacity=".53"/></svg>