<svg width="110" height="40" fill="none" xmlns="http://www.w3.org/2000/svg"><path d="M72.607 34.538V20.883h9.66v3.043H76.4v2.346h5.077v2.621h-5.077v2.584h6.048v3.061h-9.842Zm37.135 0V20.883h-3.978v4.82c-2.603.88-4.692.899-4.857.899v-5.719H96.93v13.655h3.977v-4.875h.11c-.055.018 2.548-.092 4.729-.917v5.793h3.996Zm-57.426 0v-4.71h4.49V26.95h-4.49v-2.694h5.646V20.92h-9.623v13.618h3.977Zm20.382-15.396V16.08H66.65v-2.585h5.077v-2.62H66.65V8.529h6.122V5.487h-9.917v13.655h9.843Zm21.794-.018v-3.336h-5.426V5.468H85.09v13.656h9.403Zm-10.796 0v-3.336H78.27V5.468h-3.977v13.656h9.403Zm18.787-10.65c2.181-.018 3.684 1.668 3.648 3.831 0 .77-.165 1.448-.477 2.016-1.228 2.402-5.132 2.402-6.342 0-.311-.568-.458-1.264-.458-2.016-.037-2.163 1.448-3.849 3.629-3.83Zm0 11.016c4.198.055 7.607-2.84 7.515-7.185 0-1.43-.33-2.713-.971-3.776-2.64-4.527-10.466-4.545-13.106 0-.623 1.082-.953 2.347-.953 3.776-.055 4.344 3.318 7.24 7.515 7.185Zm-41.332-.366V5.468h-3.978v4.82c-2.602.88-4.692.9-4.857.9v-5.72H48.34v13.656h3.977V14.23h.11c-.055.018 2.548-.092 4.73-.917v5.792h3.995v.019Zm28.447 15.671c2.84.055 6.049-1.375 6.14-4.472.037-1.045-.201-1.87-.696-2.456a4.21 4.21 0 0 0-1.852-1.247c-.953-.366-3.28-.733-4.307-.99-.33-.091-.623-.22-.843-.403-.458-.33-.477-1.081-.092-1.484.385-.422 1.045-.532 1.65-.514 1.063.037 1.98.569 2.2 1.613l2.859-1.521c-.495-1.081-1.375-1.833-2.493-2.328-2.365-.99-5.957-.788-7.552 1.412-.971 1.21-1.1 3.684-.091 4.802.513.586 1.118 1.008 1.814 1.246.917.385 3.263.752 4.326 1.045.623.202 1.301.513 1.265 1.246-.074 1.063-1.467 1.338-2.401 1.283-1.009-.036-1.943-.348-2.53-1.1a2.272 2.272 0 0 1-.44-.953l-3.116 1.65c1.027 2.273 3.684 3.19 6.159 3.171Zm-26.34-7.625H65a2.4 2.4 0 0 0 1.026-.22c.99-.421 1.43-1.54.789-2.438-.404-.55-1.118-.824-1.815-.824h-1.741v3.482Zm7.68 7.552c-3.207.036-5.755-2.017-6.91-4.93h-.77v4.783h-3.977V20.92h6.214c1.943 0 3.83.605 4.894 2.144.733 1.064.916 2.713.366 3.904-.495 1.064-1.558 1.705-2.804 2.145 0 0 .568 1.375 1.888 1.925.348.146.751.238 1.173.256v3.446c-.037-.018-.055-.018-.073-.018ZM41.447 8.053c.403.678.385 1.484.018 2.126a10.87 10.87 0 0 0-1.686 6.892c.458 6.781-3.336 13.893-10.21 17.889-6.873 3.996-14.938 3.776-20.601.018a10.892 10.892 0 0 0-6.819-1.961 2.219 2.219 0 0 1-1.851-1.081 2.102 2.102 0 0 1-.018-2.127 10.87 10.87 0 0 0 1.686-6.891c-.458-6.782 3.336-13.894 10.21-17.89 6.873-3.995 14.937-3.775 20.601-.018a10.764 10.764 0 0 0 6.819 1.943c.751.018 1.466.403 1.85 1.1Z" fill="#fff" fill-opacity=".53"/></svg>