<svg width="81" height="40" fill="none" xmlns="http://www.w3.org/2000/svg"><path fill-rule="evenodd" clip-rule="evenodd" d="M25.189 14.799c1.018 0 1.857.141 2.546.384 2.885 1.01 3.213 3.778 3.218 5.431v5.72c0 .634.098 2.102 2.073 1.54v2.06a4.914 4.914 0 0 1-2.073.435c-1.816-.015-2.619-1.19-2.964-2.077-1.044.993-2.887 2.2-4.947 2.2-3.383 0-4.348-2.332-4.348-3.969 0-1.636.877-3.181 3.656-4.392 2.776-1.214 5.385-.697 5.385-2.636 0-2.079-2.845-2.122-2.879-2.123-3.757 0-5.99 2.642-6.011 2.668V17.1c1.236-1.107 3.275-2.301 6.344-2.301Zm2.546 7.694c-.453.363-1.223.802-2.49 1.14l-.52.134c-2.615.7-2.809 1.81-2.809 2.55 0 1.235.901 1.76 2.101 1.76 1.452 0 3.73-1.102 3.718-3.159-.002-.605 0-2.425 0-2.425ZM46.547 14.799c1.018 0 1.857.141 2.547.384 2.884 1.01 3.212 3.778 3.217 5.431v5.72c0 .634.098 2.102 2.072 1.54v2.06a4.913 4.913 0 0 1-2.072.435c-1.816-.015-2.618-1.19-2.963-2.077-1.045.993-2.887 2.2-4.948 2.2-3.383 0-4.348-2.332-4.348-3.969 0-1.636.877-3.181 3.656-4.392 2.776-1.214 5.385-.697 5.386-2.636 0-2.08-2.848-2.122-2.88-2.123-3.758 0-5.99 2.643-6.01 2.668V17.1c1.235-1.107 3.274-2.301 6.343-2.301Zm2.547 7.694c-.454.363-1.224.802-2.49 1.14l-.521.134c-2.615.7-2.809 1.81-2.809 2.55 0 1.235.901 1.76 2.101 1.76 1.452 0 3.73-1.102 3.718-3.159-.002-.605 0-2.425 0-2.425ZM73.163 14.799c1.019 0 1.858.141 2.547.384 2.885 1.01 3.213 3.778 3.218 5.431v5.72c0 .634.098 2.102 2.072 1.54v2.06a4.914 4.914 0 0 1-2.073.435c-1.815-.015-2.618-1.19-2.963-2.077-1.044.993-2.887 2.2-4.947 2.2-3.383 0-4.348-2.332-4.348-3.969 0-1.636.877-3.181 3.656-4.392 2.776-1.214 5.385-.697 5.385-2.636 0-2.088-2.871-2.123-2.88-2.123-3.766 0-6 2.655-6.01 2.668V17.1c1.236-1.107 3.275-2.301 6.344-2.301Zm2.547 7.694c-.483.387-1.327.86-2.75 1.207-2.863.695-3.069 1.853-3.069 2.617 0 1.235.901 1.76 2.101 1.76 1.452 0 3.73-1.102 3.718-3.159-.002-.605 0-2.425 0-2.425Z" fill="#fff" fill-opacity=".53"/><path d="M3.215 18.57h9.53v-8.448h3.215V30.24h-3.215v-8.445h-9.53v8.445H0V10.122h3.215v8.447ZM37.711 30.239h-3.215V8.75h3.215v21.489ZM63.205 14.801c1.741 0 2.223.435 2.223.435v2.716s-.587-.387-2.147-.387c-3.303 0-4.183 3.114-4.183 4.48v8.194h-3.215V14.974h3.215v2.811c1.133-2.627 2.488-2.984 4.107-2.984Z" fill="#fff" fill-opacity=".53"/></svg>