<svg width="97" height="40" fill="none" xmlns="http://www.w3.org/2000/svg"><g clip-path="url(#a)"><path d="M10.181 29.555a102.835 102.835 0 0 0 4.956-1.75c4.69-1.92 6.863-5.55 6.863-10.644-.02-5.703-3.87-10.893-10.675-10.893C4.138 6.268.23 11.762.23 17.731c0 5.969 4.118 10.55 10.485 10.55l-5.967 2.053.553.912a8.66 8.66 0 0 1 3.012-.665c3.164 0 5.547 3.688 9.321 3.688 2.593 0 3.851-1.711 4.442-3.612-.781.78-2.097 1.122-3.45 1.122-3.298 0-5.643-2.091-8.445-2.205M4.233 17.35c-.457-5.285 2.078-10.19 5.89-10.19 4.728 0 7.397 4.962 7.855 10.266.21 4.01-1.068 10.132-5.929 10.132-4.86 0-7.606-6.216-7.816-10.208Zm34.542-4.81-3.812 1.825c.895 1.046 1.067 2.49 1.067 3.65v5.494c-1.449 1.977-3.05 3.497-5.052 3.497-3.526 0-3.336-3.06-3.336-6.5v-7.833L23.85 14.5c.896 1.046 1.067 2.49 1.067 3.65v3.194c0 3.65.21 7.014 4.652 7.014 2.783 0 4.823-1.464 6.462-3.688v3.878l3.813-1.749c-.896-1.045-1.068-2.49-1.068-3.65V12.541Zm5.3-2.984c.247 0 .495-.02.743-.114.229-.095.438-.228.63-.4.17-.17.323-.38.4-.608a1.52 1.52 0 0 0 .114-.703c0-.247-.02-.475-.115-.703a1.619 1.619 0 0 0-.4-.59 1.645 1.645 0 0 0-.629-.38 1.955 1.955 0 0 0-.743-.095c-.248 0-.515 0-.744.095-.229.076-.457.21-.629.38-.19.171-.324.38-.42.59a1.481 1.481 0 0 0-.114.703c0 .247.038.494.115.722.095.228.228.438.419.609.19.17.4.304.63.399.247.095.495.133.742.114m1.64 2.965-3.85 1.825c.895 1.046 1.067 2.433 1.067 3.65v6.54c0 1.216-.172 2.603-1.068 3.649h4.9c-.897-1.046-1.068-2.433-1.068-3.65V12.541h.019Zm18.014 7.262c0-3.612-.076-7.357-4.651-7.357-2.612 0-4.232.837-6.462 3.84v-3.745l-3.851 1.825c.896 1.046 1.067 2.433 1.067 3.65v6.52c0 1.217-.171 2.604-1.067 3.65h4.9c-.897-1.046-1.068-2.433-1.068-3.65v-7.014c2.04-3.099 3.64-3.783 4.975-3.783 3.622 0 3.374 3.364 3.374 6.71v4.087c0 1.217-.172 2.604-1.067 3.65h4.899c-.877-1.046-1.068-2.433-1.068-3.65v-4.714l.02-.02Zm25.773-7.395c-4.556 0-8.006 3.156-8.006 7.984 0 4.543 3.088 7.965 7.815 7.965 2.936 0 5.186-1.312 6.672-4.144l.096-.133-.248-.21s-1.258 2.035-3.031 2.776a6.278 6.278 0 0 1-1.983.323c-4.308 0-6.023-3.688-6.271-6.672h11.628v-.342c.114-4.41-2.192-7.547-6.71-7.547m-4.9 5.855c.363-3.098 2.04-5 4.442-5a4.302 4.302 0 0 1 2.993 1.18c.382.38.687.817.896 1.31.21.495.305 1.027.286 1.54 0 2.11-1.601 2.11-3.584 2.149l-5.051.076c0-.438 0-.875.038-1.274m-4.29 6.387a4.623 4.623 0 0 1-1.715 1.711 4.978 4.978 0 0 1-2.364.665h-.476c-4.423-.038-6.71-4.03-6.71-7.813 0-3.364 1.772-5.968 5.013-5.968 2.192 0 3.85.988 4.48 4.448h.343l1.258-3.498c-1.601-1.35-3.736-1.787-5.661-1.787-5.72 0-8.388 3.935-8.388 7.851s2.878 8.079 8.216 8.079a7.242 7.242 0 0 0 2.63-.38 6.67 6.67 0 0 0 2.27-1.33c.152-.115.285-.248.4-.4l.038-.057c.362-.4.667-.855.915-1.33l-.248-.19Z" fill="#fff" fill-opacity=".53"/></g><defs><clipPath id="a"><path fill="#fff" transform="translate(.23 5.945)" d="M0 0h96v28.286H0z"/></clipPath></defs></svg>