<?xml version="1.0" encoding="UTF-8"?>
<svg id="Layer_1" xmlns="http://www.w3.org/2000/svg" xmlns:xlink="http://www.w3.org/1999/xlink" version="1.1" viewBox="0 0 200 200">
  <!-- Generator: Adobe Illustrator 29.8.1, SVG Export Plug-In . SVG Version: 2.1.1 Build 2)  -->
  <defs>
    <style>
      .st0 {
        fill: url(#radial-gradient);
      }

      .st1 {
        fill: none;
        stroke: #84bfff;
        stroke-opacity: .25;
        stroke-width: 1.02px;
      }
    </style>
    <radialGradient id="radial-gradient" cx="105.45" cy="66.36" fx="105.45" fy="66.36" r="218.43" gradientUnits="userSpaceOnUse">
      <stop offset="0" stop-color="#fff"/>
      <stop offset=".19" stop-color="#e1e6f2"/>
      <stop offset="1" stop-color="#0048ff"/>
    </radialGradient>
  </defs>
  <path class="st0" d="M6.2,121.96c.21-5.01,4.33-8.96,9.34-8.96h160.59c5.36,0,9.63,4.5,9.34,9.85l-3.56,66.3c-.27,4.96-4.37,8.85-9.34,8.85H12.75c-5.32,0-9.57-4.43-9.34-9.74l2.79-66.3Z"/>
  <path class="st1" d="M15.54,113.51h160.59c5.07,0,9.1,4.25,8.83,9.32l-3.56,66.3c-.25,4.69-4.13,8.37-8.83,8.37H12.75c-5.03,0-9.05-4.19-8.83-9.21l2.79-66.3c.2-4.73,4.1-8.47,8.83-8.47Z"/>
</svg>