<?xml version="1.0" encoding="UTF-8"?>
<svg id="Layer_1" xmlns="http://www.w3.org/2000/svg" xmlns:xlink="http://www.w3.org/1999/xlink" version="1.1" viewBox="0 0 200 200">
  <!-- Generator: Adobe Illustrator 29.8.1, SVG Export Plug-In . SVG Version: 2.1.1 Build 2)  -->
  <defs>
    <style>
      .st0 {
        fill: none;
      }

      .st1 {
        clip-path: url(#clippath-1);
      }

      .st2 {
        clip-path: url(#clippath-2);
      }

      .st3, .st4, .st5 {
        fill: #fff;
      }

      .st6, .st5 {
        opacity: .5;
      }

      .st7 {
        clip-path: url(#clippath);
      }

      .st4 {
        opacity: .35;
      }

      .st4, .st5 {
        isolation: isolate;
      }
    </style>
    <clipPath id="clippath">
      <rect class="st0" x="44.83" y="60.16" width="112.48" height="114.16"/>
    </clipPath>
    <clipPath id="clippath-1">
      <path class="st0" d="M114.15,100.02c-1.75-1.01-8.8-.75-8.8-.75l50.84-31.4,3.29,113.28-83.51-10.54,9.62-45.3s6.16,11.84,6.85,12.25l16.11,9.3c1.75,1.01,3.9,1,5.64,0l16.01-9.31c1.72-1,2.79-2.84,2.8-4.84l.08-18.5c0-2.02-1.07-3.88-2.81-4.89l-16.11-9.3h-.01Z"/>
    </clipPath>
    <clipPath id="clippath-2">
      <path class="st0" d="M92.54,87.61c-1.74-1.01-3.9-1.01-5.64,0l-16.04,9.31c-1.73,1-2.8,2.85-2.8,4.85l-.04,18.49c0,2.01,1.07,3.88,2.81,4.88l16.81,27.67-50.02-7.48,15.08-89.42,66.28,6.63-1.57,29.22-24.87-4.16h0Z"/>
    </clipPath>
  </defs>
  <g class="st7">
    <g>
      <g>
        <path class="st5" d="M114.15,100.02c-1.75-1.01-3.9-1-5.64,0l-16.01,9.31c-1.72,1-2.79,2.84-2.8,4.84l-.08,18.5c0,2.02,1.07,3.88,2.81,4.89l16.11,9.3c1.75,1.01,3.9,1,5.64,0l16.01-9.31c1.72-1,2.79-2.84,2.8-4.84l.08-18.5c0-2.02-1.07-3.88-2.81-4.89,0,0-16.11-9.3-16.11-9.3Z"/>
        <g class="st6">
          <path class="st3" d="M111.33,100.17c.83,0,1.65.22,2.36.63l16.11,9.3c1.46.85,2.37,2.42,2.36,4.11l-.08,18.5c0,1.67-.91,3.23-2.35,4.06l-16.01,9.31c-.72.42-1.54.64-2.38.64s-1.64-.22-2.36-.63l-16.11-9.3c-1.46-.85-2.37-2.42-2.36-4.11l.08-18.5c0-1.67.91-3.23,2.35-4.06l16.01-9.31c.72-.42,1.54-.64,2.37-.64M111.33,99.27c-.98,0-1.95.25-2.83.76l-16.01,9.31c-1.72,1-2.79,2.84-2.8,4.84l-.08,18.5c0,2.02,1.07,3.88,2.81,4.89l16.11,9.3c.87.5,1.84.75,2.81.75s1.95-.25,2.83-.76l16.01-9.31c1.72-1,2.79-2.84,2.8-4.84l.08-18.5c0-2.02-1.07-3.88-2.81-4.89l-16.11-9.3c-.87-.5-1.84-.75-2.81-.75h0Z"/>
        </g>
      </g>
      <g class="st1">
        <g>
          <g>
            <path class="st4" d="M114.15,125c-1.75-1.01-3.9-1.01-5.64,0l-16.01,9.31c-1.72,1-2.79,2.84-2.8,4.84l-.08,18.5c0,2.02,1.07,3.89,2.81,4.89l16.11,9.3c1.75,1.01,3.9,1.01,5.64,0l16.01-9.31c1.72-1,2.79-2.84,2.8-4.84l.08-18.5c0-2.02-1.07-3.88-2.81-4.89,0,0-16.11-9.3-16.11-9.3Z"/>
            <g class="st6">
              <path class="st3" d="M111.34,125.14c.83,0,1.64.22,2.36.63l16.11,9.3c1.46.85,2.37,2.42,2.36,4.11l-.08,18.5c0,1.67-.91,3.23-2.35,4.06l-16.01,9.31c-.72.42-1.54.64-2.37.64s-1.64-.22-2.36-.63l-16.11-9.3c-1.46-.85-2.37-2.42-2.36-4.11l.08-18.5c0-1.67.91-3.22,2.35-4.06l16.01-9.31c.72-.42,1.54-.64,2.37-.64M111.34,124.24c-.98,0-1.95.25-2.83.76l-16.01,9.31c-1.72,1-2.79,2.84-2.8,4.84l-.08,18.5c0,2.02,1.07,3.89,2.81,4.89l16.11,9.3c.87.5,1.84.75,2.81.75s1.95-.25,2.83-.76l16.01-9.31c1.72-1,2.79-2.84,2.8-4.84l.08-18.5c0-2.02-1.07-3.88-2.81-4.89l-16.11-9.3c-.87-.5-1.84-.75-2.81-.75h0Z"/>
            </g>
          </g>
          <g>
            <path class="st4" d="M135.76,87.45c-1.75-1.01-3.9-1.01-5.64,0l-16.01,9.31c-1.72,1-2.79,2.84-2.8,4.84l-.08,18.5c0,2.02,1.06,3.88,2.81,4.89l16.11,9.3c1.75,1.01,3.9,1.01,5.64,0l16.01-9.31c1.72-1,2.79-2.84,2.8-4.84l.08-18.5c0-2.02-1.06-3.88-2.81-4.89l-16.11-9.3Z"/>
            <g class="st6">
              <path class="st3" d="M132.94,87.6c.83,0,1.64.22,2.36.63l16.11,9.3c1.46.85,2.37,2.42,2.36,4.11l-.08,18.5c0,1.67-.91,3.22-2.35,4.06l-16.01,9.31c-.72.42-1.54.64-2.37.64s-1.65-.22-2.36-.63l-16.11-9.3c-1.46-.85-2.37-2.42-2.36-4.11l.08-18.5c0-1.67.91-3.22,2.35-4.06l16.01-9.31c.72-.42,1.54-.64,2.37-.64M132.94,86.7c-.98,0-1.95.25-2.83.76l-16.01,9.31c-1.72,1-2.79,2.84-2.8,4.84l-.08,18.5c0,2.02,1.06,3.89,2.81,4.89l16.11,9.3c.87.5,1.84.75,2.81.75s1.95-.25,2.83-.76l16.01-9.31c1.72-1,2.79-2.84,2.8-4.84l.08-18.5c0-2.02-1.07-3.89-2.81-4.89l-16.11-9.3c-.87-.5-1.84-.75-2.81-.75h0Z"/>
            </g>
          </g>
        </g>
      </g>
      <g>
        <path class="st5" d="M92.54,87.61c-1.74-1.01-3.9-1.01-5.64,0l-16.04,9.31c-1.73,1-2.8,2.85-2.8,4.85l-.04,18.49c0,2.01,1.07,3.88,2.81,4.88l16.12,9.31c1.75,1.01,3.9,1.01,5.64,0l16-9.3c1.73-1.01,2.79-2.85,2.8-4.85l.04-18.5c0-2.01-1.07-3.87-2.81-4.88l-16.07-9.3h-.01Z"/>
        <g class="st6">
          <path class="st3" d="M89.73,87.75c.83,0,1.65.22,2.37.64l16.08,9.31c1.46.84,2.36,2.41,2.36,4.1l-.04,18.5c0,1.67-.9,3.23-2.35,4.07l-16,9.3c-.72.42-1.54.64-2.37.64s-1.65-.22-2.36-.63l-16.12-9.31c-1.46-.84-2.36-2.41-2.36-4.1l.04-18.49c0-1.67.9-3.24,2.35-4.08l16.04-9.31c.72-.42,1.54-.64,2.37-.64M89.73,86.85c-.97,0-1.95.25-2.82.76l-16.04,9.31c-1.73,1-2.8,2.85-2.8,4.85l-.04,18.49c0,2.01,1.07,3.88,2.81,4.88l16.12,9.31c.87.5,1.84.75,2.81.75s1.95-.25,2.83-.76l16-9.3c1.73-1,2.79-2.85,2.8-4.85l.04-18.5c0-2.01-1.07-3.87-2.81-4.88l-16.07-9.3c-.87-.5-1.84-.76-2.82-.76h-.01Z"/>
        </g>
      </g>
      <g class="st2">
        <g>
          <g>
            <path class="st4" d="M92.54,62.63c-1.74-1.01-3.9-1.01-5.64,0l-16.04,9.31c-1.73,1-2.8,2.85-2.8,4.85l-.04,18.49c0,2.01,1.07,3.87,2.81,4.88l16.12,9.31c1.75,1.01,3.9,1,5.64,0l16-9.3c1.73-1.01,2.79-2.85,2.8-4.85l.04-18.5c0-2.01-1.07-3.87-2.81-4.88l-16.07-9.3h-.01Z"/>
            <g class="st6">
              <path class="st3" d="M89.73,62.78c.83,0,1.65.22,2.37.64l16.07,9.3c1.46.84,2.36,2.41,2.36,4.1l-.04,18.5c0,1.67-.9,3.23-2.35,4.07l-16,9.3c-.72.42-1.54.64-2.37.64s-1.65-.22-2.36-.63l-16.12-9.31c-1.46-.84-2.36-2.41-2.36-4.1l.04-18.49c0-1.67.9-3.24,2.35-4.08l16.04-9.31c.72-.42,1.54-.64,2.37-.64M89.73,61.88c-.97,0-1.95.25-2.82.76l-16.04,9.31c-1.73,1-2.8,2.85-2.8,4.85l-.04,18.49c0,2.01,1.07,3.88,2.81,4.88l16.12,9.31c.87.5,1.84.75,2.81.75s1.95-.25,2.83-.76l16-9.3c1.73-1,2.79-2.85,2.8-4.85l.04-18.5c0-2.01-1.07-3.87-2.81-4.88l-16.07-9.3c-.87-.5-1.84-.76-2.82-.76h-.01Z"/>
            </g>
          </g>
          <g>
            <path class="st4" d="M70.89,100.17c-1.75-1.01-3.9-1-5.64,0l-16,9.3c-1.73,1.01-2.79,2.85-2.8,4.85l-.04,18.5c0,2.01,1.07,3.88,2.81,4.88l16.12,9.31c1.75,1.01,3.9,1.01,5.64,0l16-9.3c1.73-1.01,2.79-2.85,2.8-4.85l.04-18.5c0-2.01-1.07-3.88-2.81-4.88,0,0-16.12-9.31-16.12-9.31Z"/>
            <g class="st6">
              <path class="st3" d="M68.07,100.32c.83,0,1.64.22,2.36.63l16.12,9.31c1.46.84,2.37,2.42,2.36,4.1l-.04,18.5c0,1.67-.9,3.23-2.35,4.07l-16,9.3c-.72.42-1.54.64-2.37.64s-1.65-.22-2.36-.63l-16.12-9.31c-1.46-.84-2.36-2.41-2.36-4.1l.04-18.5c0-1.67.9-3.23,2.35-4.07l16-9.3c.72-.42,1.54-.64,2.37-.64M68.07,99.42c-.98,0-1.95.25-2.83.76l-16,9.3c-1.73,1.01-2.79,2.85-2.8,4.85l-.04,18.5c0,2.01,1.07,3.88,2.81,4.88l16.12,9.31c.87.5,1.84.75,2.81.75s1.95-.25,2.83-.76l16-9.3c1.73-1.01,2.79-2.85,2.8-4.85l.04-18.5c0-2.01-1.07-3.88-2.81-4.88l-16.12-9.31c-.87-.5-1.84-.75-2.81-.75h0Z"/>
            </g>
          </g>
        </g>
      </g>
      <path class="st3" d="M111.43,83.26c0-4.32-4.67-7.03-8.41-4.88l-10.45,5.97c-1.76,1.01-2.84,2.88-2.83,4.9l.08,18.57c0,2.03-1.08,3.91-2.84,4.91l-16.09,9.16c-1.77,1.01-2.85,2.89-2.84,4.92l.07,12.14c.03,4.32,4.71,7,8.45,4.83l32.07-18.63c1.73-1.01,2.8-2.86,2.8-4.86v-37.02h-.01Z"/>
      <path class="st3" d="M154.65,108.17c.02-4.34-4.67-7.06-8.43-4.9l-32.07,18.47c-1.74,1-2.82,2.87-2.82,4.88l.04,37.09c0,4.33,4.7,7.04,8.45,4.86l10.38-6.04c1.72-1,2.79-2.84,2.8-4.84l.08-18.55c0-1.99,1.07-3.83,2.79-4.83l15.96-9.32c1.72-1,2.78-2.84,2.79-4.83l.05-11.99h-.02Z"/>
    </g>
  </g>
</svg>