<?xml version="1.0" encoding="UTF-8"?>
<svg id="Layer_1" data-name="Layer 1" xmlns="http://www.w3.org/2000/svg" xmlns:xlink="http://www.w3.org/1999/xlink" viewBox="0 0 43.44 48.36">
  <defs>
    <style>
      .cls-1 {
        fill: url(#linear-gradient);
      }

      .cls-2 {
        fill: #fff;
      }

      .cls-3 {
        opacity: .5;
      }
    </style>
    <linearGradient id="linear-gradient" x1="29.8" y1="4.05" x2="12.91" y2="46.11" gradientUnits="userSpaceOnUse">
      <stop offset=".49" stop-color="#4f5a7d"/>
      <stop offset="1" stop-color="#929bba"/>
    </linearGradient>
  </defs>
  <path class="cls-1" d="M24.52.75c-1.75-1.01-3.9-1.01-5.64,0L2.87,10.07C1.15,11.07.08,12.91.08,14.91L0,33.4c0,2.02,1.07,3.89,2.81,4.89l16.11,9.3c1.75,1.01,3.9,1.01,5.64,0l16.01-9.31c1.72-1,2.79-2.84,2.8-4.84l.08-18.5c0-2.02-1.07-3.88-2.81-4.89L24.52.75Z"/>
  <g class="cls-3">
    <path class="cls-2" d="M21.71.9c.83,0,1.64.22,2.36.63l16.11,9.3c1.46.85,2.37,2.42,2.36,4.11l-.08,18.5c0,1.67-.91,3.23-2.35,4.06l-16.01,9.31c-.72.42-1.54.64-2.37.64s-1.64-.22-2.36-.63L3.26,37.52c-1.46-.85-2.37-2.42-2.36-4.11l.08-18.5c0-1.67.91-3.22,2.35-4.06L19.33,1.54c.72-.42,1.54-.64,2.37-.64M21.71,0C20.73,0,19.75.25,18.88.76L2.87,10.07C1.15,11.07.08,12.91.08,14.91L0,33.4c0,2.02,1.07,3.89,2.81,4.89l16.11,9.3c.87.5,1.84.75,2.81.75s1.95-.25,2.83-.76l16.01-9.31c1.72-1,2.79-2.84,2.8-4.84l.08-18.49c0-2.02-1.07-3.88-2.81-4.89L24.52.75C23.65.25,22.68,0,21.71,0h0Z"/>
  </g>
</svg>